<?xml version="1.0" encoding="UTF-8" standalone="no"?>
<svg width="60px" height="60px" viewBox="0 0 60 60" version="1.1" xmlns="http://www.w3.org/2000/svg" xmlns:xlink="http://www.w3.org/1999/xlink" xmlns:sketch="http://www.bohemiancoding.com/sketch/ns">
    <!-- Generator: Sketch 3.3.2 (12043) - http://www.bohemiancoding.com/sketch -->
    <title>instagram</title>
    <desc>Created with Sketch.</desc>
    <defs></defs>
    <g id="Page-1" stroke="none" stroke-width="1" fill="none" fill-rule="evenodd" sketch:type="MSPage">
        <g id="web" sketch:type="MSArtboardGroup" transform="translate(-1270.000000, -1432.000000)" fill="#FFFFFF">
            <g id="footer" sketch:type="MSLayerGroup" transform="translate(1100.000000, 1416.000000)">
                <g id="instagram" transform="translate(170.000000, 16.000000)" sketch:type="MSShapeGroup">
                    <path d="M59.629,47.475 C59.629,46.829 59.589,44.519 59.528,41.3 C59.45,37.125 59.338,31.462 59.236,26.149 L59.236,26.145 C59.236,26.143 59.235,26.141 59.235,26.139 C59.219,25.323 59.204,24.514 59.189,23.722 C59.077,17.771 58.986,12.644 58.987,11.252 C58.987,11.142 58.987,11.058 58.988,11.01 C58.993,10.748 58.996,10.494 58.996,10.246 C58.993,8.523 58.882,7.078 58.533,5.8 C58.272,4.845 57.86,3.973 57.244,3.247 C56.785,2.704 56.219,2.256 55.587,1.914 C54.637,1.401 53.557,1.111 52.325,0.935 C51.092,0.76 49.693,0.699 48.066,0.698 C47.947,0.698 47.827,0.698 47.706,0.699 C46.623,0.705 45.6,0.708 44.633,0.708 C39.278,0.708 35.653,0.625 33.167,0.542 C30.675,0.46 29.354,0.376 28.458,0.375 L28.395,0.375 C27.915,0.377 27.431,0.378 26.944,0.378 C24.291,0.378 21.555,0.348 18.812,0.348 C15.962,0.348 13.105,0.381 10.32,0.516 C8.104,0.623 6.304,1.097 4.87,1.961 C3.796,2.606 2.955,3.472 2.355,4.45 C1.45,5.922 1.055,7.595 0.855,9.329 C0.659,11.068 0.662,12.895 0.661,14.744 C0.661,23.562 0.657,29.558 0.657,34.709 C0.657,37.284 0.658,39.648 0.661,42.047 L0.661,42.09 C0.661,43.132 0.623,44.488 0.623,45.945 C0.623,47.529 0.667,49.234 0.867,50.848 C1.075,52.463 1.408,53.99 2.152,55.289 C2.702,56.237 3.394,57.016 4.173,57.618 C5.344,58.526 6.683,59.03 8.024,59.308 C9.369,59.586 10.732,59.649 12.052,59.65 C13.5,59.649 14.899,59.572 16.13,59.573 C16.254,59.573 16.376,59.574 16.496,59.575 C17.473,59.589 18.52,59.595 19.627,59.595 C27.573,59.595 38.626,59.297 48.407,59.297 C50.689,59.295 52.493,59.136 54.008,58.711 C55.14,58.393 56.122,57.903 56.911,57.199 C57.503,56.674 57.969,56.039 58.313,55.348 C58.832,54.308 59.1,53.16 59.281,51.881 C59.46,50.601 59.546,49.177 59.63,47.554 C59.631,47.539 59.628,47.527 59.628,47.512 C59.625,47.501 59.629,47.488 59.629,47.475 L59.629,47.475 Z M3.902,10.185 C3.992,9.159 4.148,8.238 4.395,7.46 C4.773,6.285 5.302,5.465 6.17,4.835 C7.042,4.209 8.37,3.733 10.471,3.63 C13.177,3.498 15.986,3.465 18.811,3.465 C21.531,3.465 24.266,3.495 26.943,3.495 C27.434,3.495 27.923,3.494 28.41,3.492 L28.421,3.492 L28.458,3.492 C29.158,3.491 30.554,3.574 33.063,3.658 C35.581,3.741 39.245,3.825 44.632,3.825 C45.605,3.825 46.634,3.822 47.723,3.816 C47.839,3.815 47.952,3.815 48.066,3.815 C49.898,3.814 51.343,3.903 52.413,4.107 C53.218,4.259 53.798,4.471 54.207,4.714 C54.517,4.898 54.737,5.094 54.932,5.342 C55.219,5.712 55.459,6.236 55.628,7.044 C55.796,7.847 55.879,8.913 55.878,10.244 C55.878,10.472 55.875,10.706 55.871,10.95 C55.869,11.033 55.869,11.13 55.869,11.25 C55.869,12.78 55.968,18.29 56.088,24.587 C52.163,24.593 49.468,24.612 47.085,24.612 C45.927,24.612 44.83,24.605 43.708,24.592 C43.223,23.457 42.602,22.367 41.797,21.37 C40.626,19.922 39.083,18.686 37.167,17.833 C35.25,16.978 32.973,16.504 30.328,16.505 L30.264,16.505 L30.244,16.505 L30.237,16.505 C26.144,16.495 22.579,17.985 20.121,20.668 C19.183,21.687 18.413,22.867 17.816,24.177 C13.39,24.177 9.231,24.165 3.776,23.948 C3.777,21.234 3.777,18.208 3.777,14.742 C3.778,13.103 3.781,11.553 3.902,10.185 L3.902,10.185 Z M22.417,22.781 C24.265,20.784 26.871,19.635 30.238,19.625 L30.249,19.625 C30.252,19.625 30.255,19.624 30.259,19.624 C30.262,19.624 30.266,19.625 30.269,19.625 L30.33,19.625 C32.607,19.625 34.431,20.028 35.898,20.682 C38.093,21.667 39.545,23.213 40.517,25.099 C40.755,25.563 40.961,26.05 41.137,26.55 C41.154,26.611 41.166,26.672 41.19,26.729 C41.685,28.208 41.927,29.805 41.939,31.369 L41.939,31.454 C41.938,34.185 40.909,36.825 38.99,38.778 C37.066,40.726 34.26,42.038 30.47,42.045 C28.092,42.053 25.25,41.191 23.114,39.455 C22.041,38.588 21.135,37.514 20.491,36.21 C19.848,34.904 19.458,33.362 19.456,31.512 C19.458,27.731 20.575,24.784 22.417,22.781 L22.417,22.781 Z M55.457,54.077 C55.255,54.442 55.032,54.712 54.739,54.953 C54.301,55.309 53.656,55.621 52.621,55.843 C51.592,56.065 50.2,56.182 48.404,56.181 C38.566,56.181 27.5,56.478 19.624,56.478 C18.528,56.478 17.494,56.472 16.536,56.459 C16.401,56.457 16.265,56.456 16.128,56.456 C14.775,56.457 13.385,56.534 12.05,56.533 C10.431,56.536 8.905,56.413 7.691,55.997 C7.082,55.79 6.549,55.517 6.082,55.155 C5.615,54.792 5.206,54.34 4.847,53.723 C4.452,53.063 4.127,51.863 3.96,50.463 C3.785,49.063 3.739,47.467 3.74,45.944 C3.74,44.54 3.778,43.201 3.778,42.089 L3.778,42.044 L3.778,42.042 C3.775,39.646 3.774,37.283 3.774,34.708 C3.774,32.394 3.775,29.905 3.775,27.069 C8.806,27.267 12.763,27.293 16.793,27.296 C16.498,28.621 16.335,30.027 16.336,31.511 C16.335,33.807 16.833,35.85 17.693,37.589 C18.984,40.203 21.061,42.105 23.348,43.336 C25.64,44.569 28.149,45.16 30.467,45.162 C34.993,45.17 38.699,43.528 41.211,40.962 C43.727,38.4 45.054,34.965 45.054,31.453 L45.053,31.348 L45.053,31.345 C45.043,30.155 44.92,28.933 44.675,27.722 C45.468,27.728 46.26,27.731 47.083,27.731 C49.493,27.731 52.2,27.712 56.145,27.706 C56.16,28.441 56.173,29.178 56.188,29.915 C56.268,34.053 56.348,38.147 56.409,41.357 C56.469,44.504 56.508,46.815 56.51,47.432 C56.412,49.315 56.308,50.856 56.097,52.032 C55.94,52.923 55.724,53.594 55.457,54.077 L55.457,54.077 Z" id="Shape"></path>
                    <path d="M26.45,38.114 C27.781,38.828 29.22,39.169 30.576,39.171 C33.15,39.179 35.329,38.23 36.799,36.723 C38.274,35.22 39.048,33.21 39.048,31.163 L39.047,31.11 L39.047,31.101 C39.029,29.175 38.537,27.069 37.155,25.352 C36.466,24.499 35.55,23.766 34.426,23.267 C33.303,22.766 31.988,22.499 30.497,22.499 L30.474,22.499 L30.45,22.499 L30.445,22.499 L30.442,22.499 C28.103,22.491 25.99,23.361 24.545,24.944 C23.092,26.523 22.341,28.72 22.344,31.191 C22.343,32.513 22.632,33.716 23.14,34.741 C23.902,36.286 25.125,37.401 26.45,38.114 L26.45,38.114 Z M26.841,27.057 C27.678,26.158 28.835,25.629 30.45,25.619 L30.45,25.619 C30.454,25.619 30.458,25.618 30.462,25.618 C30.467,25.618 30.472,25.619 30.477,25.619 L30.498,25.619 C31.621,25.619 32.482,25.817 33.157,26.117 C34.162,26.571 34.801,27.251 35.256,28.126 C35.705,28.997 35.923,30.072 35.93,31.126 L35.93,31.164 C35.929,32.431 35.452,33.644 34.575,34.539 C33.692,35.428 32.414,36.047 30.577,36.054 C29.481,36.062 28.114,35.646 27.133,34.842 C26.638,34.441 26.229,33.954 25.938,33.364 C25.647,32.772 25.466,32.072 25.464,31.194 C25.466,29.331 26.01,27.961 26.841,27.057 L26.841,27.057 Z" id="Shape"></path>
                    <path d="M40.25,7.819 C40.229,7.861 40.205,7.902 40.187,7.945 C40.167,7.995 40.154,8.049 40.139,8.101 C40.125,8.146 40.111,8.191 40.102,8.238 C40.091,8.292 40.089,8.348 40.085,8.404 C40.081,8.446 40.072,8.485 40.072,8.527 C40.072,8.537 40.075,8.546 40.075,8.555 C40.075,8.565 40.073,8.575 40.073,8.584 L40.378,16.88 C40.408,17.722 41.103,18.387 41.944,18.382 L51.13,18.328 C51.986,18.323 52.68,17.625 52.68,16.769 L52.68,8.26 C52.68,7.838 52.504,7.426 52.2,7.134 C51.894,6.842 51.475,6.684 51.054,6.703 C51.053,6.703 50.678,6.72 50.057,6.745 C48.2,6.82 44.141,6.969 41.632,6.969 C41.622,6.969 41.613,6.971 41.604,6.972 C41.594,6.972 41.584,6.97 41.575,6.97 C41.53,6.971 41.489,6.983 41.446,6.988 C41.393,6.994 41.342,6.998 41.291,7.009 C41.239,7.021 41.191,7.039 41.143,7.055 C41.095,7.071 41.047,7.084 41.001,7.105 C40.953,7.126 40.91,7.153 40.865,7.179 C40.822,7.203 40.779,7.225 40.739,7.253 C40.697,7.283 40.659,7.317 40.62,7.351 C40.584,7.383 40.546,7.412 40.513,7.447 C40.477,7.484 40.447,7.526 40.414,7.567 C40.385,7.605 40.353,7.64 40.327,7.681 C40.297,7.724 40.273,7.772 40.25,7.819 L40.25,7.819 Z M43.438,15.255 L43.247,10.071 C45.406,10.036 47.945,9.947 49.562,9.884 L49.562,15.219 L43.438,15.255 L43.438,15.255 Z" id="Shape"></path>
                </g>
            </g>
        </g>
    </g>
</svg>