<?xml version="1.0" encoding="UTF-8" standalone="no"?>
<svg width="70px" height="58px" viewBox="0 0 70 58" version="1.1" xmlns="http://www.w3.org/2000/svg" xmlns:xlink="http://www.w3.org/1999/xlink" xmlns:sketch="http://www.bohemiancoding.com/sketch/ns">
    <!-- Generator: Sketch 3.3.2 (12043) - http://www.bohemiancoding.com/sketch -->
    <title>twitter</title>
    <desc>Created with Sketch.</desc>
    <defs></defs>
    <g id="Page-1" stroke="none" stroke-width="1" fill="none" fill-rule="evenodd" sketch:type="MSPage">
        <g id="web" sketch:type="MSArtboardGroup" transform="translate(-1100.000000, -1433.000000)" fill="#FFFFFF">
            <g id="footer" sketch:type="MSLayerGroup" transform="translate(1100.000000, 1416.000000)">
                <g id="twitter" transform="translate(0.000000, 17.000000)" sketch:type="MSShapeGroup">
                    <path d="M69.6066809,7.44646063 C69.3023485,7.05990468 68.8187398,6.86575215 68.3325076,6.93571702 C68.0439166,6.97682139 67.6792424,7.04853539 67.2070025,7.15173358 C66.7679943,7.24706073 66.2319145,7.37387207 65.633744,7.52254743 C65.8628678,6.99781085 66.0561363,6.45208481 66.2284164,5.88274562 C66.5091368,4.94696539 66.7426332,3.95171501 66.9848748,2.89611992 C67.1073074,2.36701054 66.9079172,1.81603713 66.4741561,1.48720221 C66.0395205,1.15924185 65.4553422,1.11813748 64.9778552,1.38050577 C62.8335362,2.56378676 61.230544,3.31416007 59.8444324,3.80478877 C58.6752014,4.21758154 57.6511404,4.45283844 56.5238862,4.6128831 C55.2016144,3.36663372 53.7184313,2.40811491 52.1276824,1.75219418 C50.3322962,1.0079428 48.4083558,0.645 46.4433131,0.645 C44.0926077,0.645874561 41.6824351,1.16186553 39.3273572,2.15449223 L39.3273572,2.15449223 C38.1826126,2.63724988 37.1183238,3.35351531 36.1554791,4.22807627 C34.7125238,5.54254141 33.4960688,7.21732565 32.625923,9.08451332 C31.7557772,10.951701 31.2310662,13.0130412 31.2301917,15.1023673 C31.2301917,15.3218821 31.2380624,15.5422715 31.2485566,15.7609117 C31.2118268,15.7512916 31.1777206,15.7425459 31.1418653,15.7329258 C28.6416173,15.0700086 24.791113,13.7581671 20.9694678,12.0536478 C19.4023309,11.3574973 17.2352744,9.96694533 15.1215635,8.17584447 C13.001731,6.3873673 10.9160047,4.19134471 9.40833506,1.90786603 C9.18096029,1.56241445 8.81103902,1.33940141 8.4000154,1.29742248 C7.98899177,1.25544355 7.58059169,1.40062067 7.28850256,1.69272404 C6.63261379,2.34514652 6.07816915,2.9503427 5.60243116,3.55291521 C4.89057322,4.45546213 4.36236413,5.36850377 4.00556064,6.36287959 C3.64700811,7.35725541 3.45986118,8.40672857 3.3461738,9.60837533 C3.26834166,10.4190933 3.21674508,11.2910306 3.21674508,12.1909539 C3.22024315,14.1770818 3.46423377,16.3066378 4.31601466,18.2376684 C3.66712203,18.3155043 3.1511562,18.8411154 3.10568125,19.5040327 C3.06982599,20.0226473 3.05233563,20.5298927 3.05233563,21.0275179 C3.04971207,25.5078937 4.47867507,29.1548129 6.72094015,31.6866669 C6.93956974,31.9350422 7.16781903,32.1668009 7.40131543,32.3941867 C7.40044091,32.4046815 7.39869187,32.4134271 7.39869187,32.4256709 C7.39606832,32.5157507 7.3951938,32.6040814 7.3951938,32.6932866 C7.39431928,34.4030533 7.83682557,36.0078726 8.58628781,37.4272851 C9.71091842,39.5603393 11.4975594,41.2893463 13.5570502,42.5522123 C14.3170066,43.0166042 15.1154419,43.4171531 15.9374891,43.7529845 C12.4735219,44.8584296 9.61734495,45.1120523 7.26401605,45.114676 C6.21896661,45.114676 5.27098871,45.0622023 4.40434101,45.0114778 C3.53769332,44.9581296 2.75325035,44.9012831 2.01603137,44.9012831 C1.84025318,44.9012831 1.66797306,44.9056559 1.49744198,44.9126524 C1.0837948,44.9318927 0.70512835,45.1321672 0.458514173,45.4627512 C0.211025477,45.7942098 0.125322678,46.2131245 0.222394216,46.6154226 C0.629919772,48.2744647 1.61550196,49.7830824 2.97625253,51.1159133 C5.02612356,53.1134106 7.94876392,54.7593343 11.4599551,55.9364933 C14.9702718,57.108405 19.073512,57.8019319 23.478461,57.8019319 C29.9000493,57.8019319 36.9696557,56.3247984 43.7113177,52.6577643 C49.871425,49.2994502 54.9961026,43.8002108 58.0779053,37.6695385 C59.1413197,35.5496027 60.3035546,32.8104777 61.2104301,29.8990643 C62.1155566,26.9867763 62.7731944,23.9144436 62.7749434,21.0764933 C62.7749434,20.1136016 62.6953623,19.1769469 62.517835,18.2805219 C63.2979054,17.7199283 63.994022,17.1742022 64.6236752,16.6214797 C65.8716129,15.5265294 66.8563206,14.3948475 67.6748698,13.1241104 C68.495168,11.8516242 69.1510568,10.4549503 69.804322,8.80552837 C69.9879709,8.34900754 69.9127623,7.83301657 69.6066809,7.44646063 L69.6066809,7.44646063 Z M63.7990044,13.6051189 C62.8938779,14.5513939 61.7430118,15.4871741 60.1802475,16.5558876 C59.6861446,16.8943427 59.465766,17.5144065 59.6389206,18.088993 C59.896029,18.9434391 60.0219596,19.9588044 60.0219596,21.0773678 C60.0254577,23.483285 59.4360323,26.3430994 58.5825024,29.0813498 C57.7289725,31.8213493 56.6139616,34.4476559 55.6170107,36.4346584 C52.7993125,42.0615836 48.0069519,47.1917583 42.3977911,50.2387287 C36.0968864,53.6652585 29.4820295,55.0470648 23.4793355,55.0470648 C17.9926073,55.0496885 13.0218449,53.8847733 9.34449522,52.1216584 C7.50538311,51.2418501 5.99246635,50.2151155 4.90106744,49.1455275 C4.4183333,48.6750137 4.02567456,48.1992525 3.70997343,47.7252404 C3.88050451,47.7374843 4.05365915,47.7471045 4.23555897,47.7584738 C5.11619896,47.8126965 6.12889122,47.8677939 7.26314153,47.8677939 C10.7314813,47.8712921 15.3358205,47.3360608 21.0044485,44.7351165 C21.5711364,44.4744973 21.8920846,43.8710503 21.788017,43.2562339 C21.6856983,42.6422921 21.1872228,42.174402 20.5663148,42.1131827 C19.3140045,41.9881205 18.0135957,41.6487909 16.7796503,41.1231797 C14.9291695,40.337824 13.2369764,39.1318044 12.0441334,37.676535 C11.4468374,36.9497748 10.9728484,36.1617954 10.6492766,35.3283388 C10.5880603,35.174416 10.5399618,35.0178696 10.4901143,34.8621978 C10.8372981,34.9995038 11.1853564,35.1263152 11.5351637,35.2260151 C12.6562963,35.5496027 13.6838553,35.6729158 14.9624012,35.682536 C14.9728954,35.6851596 14.8898161,35.6947798 14.8898161,35.6947798 L14.8898161,35.9379078 L15.1136928,35.9379078 C15.8701512,35.9379078 16.4910593,35.2085239 16.500679,34.4520287 C16.5111732,33.6972826 15.906881,33.0090031 15.1504226,32.9941355 C12.8513138,32.9512821 10.5434599,31.8808194 8.78392896,29.8938169 C7.25527086,28.1630608 6.13501284,25.692426 5.86828474,22.5090241 C6.29767326,22.5842364 6.7471757,22.6183443 7.26139249,22.6655705 C7.93739518,22.7250407 8.72271267,22.7810126 9.66806702,22.8868345 C10.3746779,22.965545 11.024445,22.4924075 11.169615,21.7971315 C11.3147851,21.1018555 10.9072595,20.4083287 10.2286333,20.1984341 C9.35673848,19.9264456 8.6956026,19.5302695 8.15689929,19.0326443 C7.75374633,18.6600813 7.41793128,18.2254245 7.13633637,17.7321721 C6.713944,16.9940427 6.41748227,16.1194817 6.23208438,15.1697085 C6.04493745,14.2208099 5.96972887,13.2010718 5.96972887,12.1909539 C5.96972887,11.3977271 6.01520383,10.6106222 6.08691433,9.86986906 C6.15512677,9.15535275 6.24695119,8.55715305 6.37463088,8.0341656 C6.57052299,7.24880985 6.83112946,6.63136981 7.26576508,5.95358506 C7.49226534,5.60113699 7.77298573,5.2311977 8.11667145,4.83064878 C9.65407472,6.85350829 11.4844416,8.70757754 13.3436677,10.2791636 C15.6314077,12.2084451 17.9348891,13.7109408 19.8483352,14.5688851 C22.4946278,15.7477933 25.1295516,16.7386709 27.3831854,17.4776749 C28.5095651,17.8484887 29.5406222,18.1554596 30.43438,18.3933402 C31.3298868,18.6312208 32.0819726,18.798262 32.6897628,18.8900909 C33.1453869,18.9583066 33.6018855,18.7965128 33.911465,18.4563086 C34.221919,18.1152298 34.3408535,17.6455906 34.2306642,17.19869 C34.0645057,16.5191561 33.9831755,15.8160091 33.9831755,15.1006182 C33.9788029,12.9387035 34.7300142,10.6560994 35.9342259,8.75830208 C36.5341455,7.81027799 37.2433799,6.95845561 38.0068345,6.26317964 C38.770289,5.56790367 39.5888382,5.02917412 40.3960186,4.68984446 L40.3960186,4.68984446 C42.4467642,3.82577823 44.4948862,3.39724336 46.441564,3.39724336 C48.0707917,3.39724336 49.6265599,3.69546865 51.0738878,4.29366835 C52.5194666,4.89186805 53.8566052,5.79004216 55.0450757,7.01880032 C55.0643151,7.03891522 55.0870525,7.05290819 55.1062919,7.07127397 C55.1430217,7.10538185 55.1797515,7.13774061 55.2199793,7.16747568 C55.2549601,7.19371251 55.2934389,7.21557653 55.3301686,7.23831512 C55.3686474,7.26192826 55.4071263,7.28379229 55.4473541,7.30390719 C55.489331,7.32314753 55.5295588,7.33801507 55.5715357,7.35375716 C55.6135126,7.3686247 55.6554895,7.38261768 55.6992154,7.39398697 C55.7429413,7.40535626 55.7866672,7.41147819 55.8295186,7.41847468 C55.8732445,7.4245966 55.9152214,7.43071853 55.9606964,7.43246765 C56.0096694,7.43509133 56.0577679,7.43334221 56.1076155,7.43159309 C56.1347255,7.42984397 56.1618356,7.43334221 56.1898202,7.42984397 C57.728098,7.25580634 59.1693042,6.96195385 60.7626767,6.39698747 C61.6293244,6.09001657 62.541447,5.70346062 63.5471431,5.22070297 C63.3696159,5.79703865 63.1798454,6.31040593 62.9655884,6.74331361 C62.7014839,7.28029404 62.4111438,7.70008331 62.065709,8.03941296 C61.7193998,8.37786806 61.3162468,8.64898195 60.7583041,8.86937132 C60.0691836,9.13961066 59.7185018,9.90135326 59.9589943,10.6001275 C60.2003614,11.2989017 60.9472001,11.6819594 61.6546854,11.4703156 C63.3530001,10.9613211 64.9148899,10.5380336 66.158455,10.2249408 C66.1094819,10.3185188 66.0622579,10.4173442 66.015034,10.5082986 C65.3836317,11.6977015 64.70588,12.6579694 63.7990044,13.6051189 L63.7990044,13.6051189 Z" id="Shape"></path>
                </g>
            </g>
        </g>
    </g>
</svg>